<svg xmlns="http://www.w3.org/2000/svg" width="649.46" height="256.25" viewBox="0 0 649.46 256.25"><title>Asset 5</title><g id="Layer_2" data-name="Layer 2"><g id="logo_reversed"><path d="M379.81,247.9a12.39,12.39,0,0,1-4.58-.8,9.67,9.67,0,0,1-3.37-2.18,9.41,9.41,0,0,1-2.07-3.17,10.13,10.13,0,0,1-.7-3.76,12,12,0,0,1,.68-4,9.46,9.46,0,0,1,2.05-3.32,10,10,0,0,1,3.36-2.25,13.15,13.15,0,0,1,9.25,0,9.84,9.84,0,0,1,3.37,2.24,9.16,9.16,0,0,1,2.05,3.24,10.89,10.89,0,0,1,.69,3.85c0,.37,0,.75-.05,1.14s-.09.72-.13,1H376.61a2.74,2.74,0,0,0,1.16,2.26,4,4,0,0,0,2.27.69,4.74,4.74,0,0,0,2.18-.53,2.63,2.63,0,0,0,1.36-1.45l6,1.71a9.32,9.32,0,0,1-3.67,3.84A11.65,11.65,0,0,1,379.81,247.9Zm3.13-12.25a3.62,3.62,0,0,0-1-2.24,3.07,3.07,0,0,0-2.2-.82,3.1,3.1,0,0,0-2.2.82,3.68,3.68,0,0,0-1,2.24Z"/><path d="M393.48,249.5a8.79,8.79,0,0,0,2.91.64c1.51,0,2.35-.87,2.5-2.61l-7.12-19.6H399l3.73,13.6,3-13.6h6.59l-6.63,21.95a9.37,9.37,0,0,1-1.27,2.62,8.66,8.66,0,0,1-2,2A8.83,8.83,0,0,1,400,255.8a9.17,9.17,0,0,1-2.87.45,9.72,9.72,0,0,1-3.65-.71Z"/><path d="M424.85,247.9a12.39,12.39,0,0,1-4.58-.8,9.58,9.58,0,0,1-3.37-2.18,9.26,9.26,0,0,1-2.07-3.17,10.13,10.13,0,0,1-.71-3.76,11.71,11.71,0,0,1,.69-4,9.31,9.31,0,0,1,2.05-3.32,10,10,0,0,1,3.35-2.25,13.18,13.18,0,0,1,9.26,0,9.94,9.94,0,0,1,3.37,2.24,9.16,9.16,0,0,1,2.05,3.24,10.89,10.89,0,0,1,.69,3.85,11.17,11.17,0,0,1-.06,1.14c0,.38-.08.72-.13,1H421.65a2.73,2.73,0,0,0,1.15,2.26,4,4,0,0,0,2.27.69,4.71,4.71,0,0,0,2.18-.53,2.59,2.59,0,0,0,1.36-1.45l6,1.71a9.45,9.45,0,0,1-3.67,3.84A11.65,11.65,0,0,1,424.85,247.9ZM428,235.65a3.63,3.63,0,0,0-1.05-2.24,3.35,3.35,0,0,0-4.39,0,3.62,3.62,0,0,0-1,2.24Z"/><path d="M446.9,247.53a8,8,0,0,1-6.18-2.85,9.53,9.53,0,0,1-1.74-3.11,12.64,12.64,0,0,1,.06-7.94,9.6,9.6,0,0,1,1.88-3.2,8.75,8.75,0,0,1,6.58-2.87,7.91,7.91,0,0,1,3.72.84,6.19,6.19,0,0,1,2.53,2.44v-2.91h6.15v17.81a9.87,9.87,0,0,1-.86,4.17,9,9,0,0,1-2.42,3.17,11.49,11.49,0,0,1-3.76,2,15.62,15.62,0,0,1-4.88.73,14.1,14.1,0,0,1-5.44-1,12.53,12.53,0,0,1-4.1-2.8l3.73-3.87a9.59,9.59,0,0,0,2.59,1.69,7.63,7.63,0,0,0,3.22.69,6.16,6.16,0,0,0,1.84-.26,4,4,0,0,0,1.55-.84,3.88,3.88,0,0,0,1.06-1.5,5.83,5.83,0,0,0,.39-2.24v-1.27a5.2,5.2,0,0,1-2.44,2.31A8,8,0,0,1,446.9,247.53Zm2.53-5.59a3.49,3.49,0,0,0,1.88-.5,5.41,5.41,0,0,0,1.51-1.51v-3.5a4.84,4.84,0,0,0-1.54-2.13,3.51,3.51,0,0,0-2.14-.78,2.83,2.83,0,0,0-1.4.36,3.65,3.65,0,0,0-1.14.93,4,4,0,0,0-.74,1.38,5.24,5.24,0,0,0-.26,1.69,4,4,0,0,0,1.08,2.94A3.63,3.63,0,0,0,449.43,241.94Z"/><path d="M464.82,220.34h7.07v19.4c0,1.49.61,2.24,1.83,2.24a3.53,3.53,0,0,0,1-.15,4.42,4.42,0,0,0,1-.41l.89,5.21a13.06,13.06,0,0,1-2.85.94,14.72,14.72,0,0,1-3,.33,6.07,6.07,0,0,1-4.36-1.45,5.56,5.56,0,0,1-1.52-4.21Z"/><path d="M485.45,247.9a7.63,7.63,0,0,1-2.72-.48,6.93,6.93,0,0,1-2.18-1.33,6.1,6.1,0,0,1-1.43-2,5.94,5.94,0,0,1-.52-2.49,5.86,5.86,0,0,1,.63-2.72,6.62,6.62,0,0,1,1.75-2.13,8.43,8.43,0,0,1,2.67-1.38,11.4,11.4,0,0,1,3.4-.48,9.12,9.12,0,0,1,3.95.75v-.6a2.51,2.51,0,0,0-.8-2.05,4,4,0,0,0-2.59-.67,8.65,8.65,0,0,0-3.09.54,15.5,15.5,0,0,0-3,1.58l-2.05-4.39a15.93,15.93,0,0,1,8.83-2.5q4.69,0,7.23,2.09t2.53,6.26v3.8a2.36,2.36,0,0,0,.3,1.39,1.42,1.42,0,0,0,1,.47v6c-.57.12-1.11.22-1.62.28a11.74,11.74,0,0,1-1.36.09,5.06,5.06,0,0,1-2.89-.69,3.23,3.23,0,0,1-1.28-2l-.15-.71a9,9,0,0,1-3,2.56A8,8,0,0,1,485.45,247.9Zm2.13-5.06a4.35,4.35,0,0,0,1.3-.21,5,5,0,0,0,1.19-.54,3.2,3.2,0,0,0,.67-.65,1.19,1.19,0,0,0,.26-.73v-1.45a9.86,9.86,0,0,0-1.38-.37,6.78,6.78,0,0,0-1.34-.15,3.54,3.54,0,0,0-2.16.63,1.92,1.92,0,0,0-.85,1.6,1.61,1.61,0,0,0,.65,1.34A2.56,2.56,0,0,0,487.58,242.84Z"/><path d="M511.56,247.9a15.42,15.42,0,0,1-5-.84,11.48,11.48,0,0,1-4.18-2.44l2.43-4.24a18.56,18.56,0,0,0,3.52,1.9,8.6,8.6,0,0,0,3.11.67c1,0,1.49-.31,1.49-.93a1.09,1.09,0,0,0-.58-.9,10.07,10.07,0,0,0-2.26-.86,30.44,30.44,0,0,1-3.48-1.17,9.71,9.71,0,0,1-2.27-1.25,4,4,0,0,1-1.25-1.49,4.58,4.58,0,0,1-.37-1.93,6.34,6.34,0,0,1,.6-2.76,6.7,6.7,0,0,1,1.65-2.2,7.33,7.33,0,0,1,2.54-1.43,9.75,9.75,0,0,1,3.22-.5,14.94,14.94,0,0,1,4.11.55,10.42,10.42,0,0,1,3.93,2.28l-2.68,4.24a19.18,19.18,0,0,0-3.05-1.69,6,6,0,0,0-2.31-.5,2,2,0,0,0-1,.24.8.8,0,0,0-.41.76,1,1,0,0,0,.59.91,9.75,9.75,0,0,0,2.35.8,27.61,27.61,0,0,1,3.57,1.18,9.12,9.12,0,0,1,2.33,1.34,4.21,4.21,0,0,1,1.25,1.64,5.5,5.5,0,0,1,.37,2.1,6.21,6.21,0,0,1-.56,2.72,5.64,5.64,0,0,1-1.62,2.05,7.16,7.16,0,0,1-2.57,1.3A11.88,11.88,0,0,1,511.56,247.9Z"/><path d="M531.72,247.9a15.43,15.43,0,0,1-5-.84,11.35,11.35,0,0,1-4.17-2.44l2.42-4.24a18.56,18.56,0,0,0,3.52,1.9,8.64,8.64,0,0,0,3.11.67c1,0,1.49-.31,1.49-.93a1.09,1.09,0,0,0-.58-.9,10.14,10.14,0,0,0-2.25-.86,30.67,30.67,0,0,1-3.49-1.17,9.71,9.71,0,0,1-2.27-1.25,4,4,0,0,1-1.25-1.49,4.58,4.58,0,0,1-.37-1.93,6.34,6.34,0,0,1,.6-2.76,6.7,6.7,0,0,1,1.65-2.2,7.42,7.42,0,0,1,2.54-1.43,9.75,9.75,0,0,1,3.22-.5,15.07,15.07,0,0,1,4.12.55,10.57,10.57,0,0,1,3.93,2.28l-2.69,4.24a18.76,18.76,0,0,0-3.05-1.69,6,6,0,0,0-2.31-.5,2,2,0,0,0-1,.24.8.8,0,0,0-.41.76,1,1,0,0,0,.59.91,9.75,9.75,0,0,0,2.35.8,27.8,27.8,0,0,1,3.58,1.18,9.22,9.22,0,0,1,2.32,1.34,4.12,4.12,0,0,1,1.25,1.64,5.5,5.5,0,0,1,.37,2.1,6.21,6.21,0,0,1-.56,2.72,5.64,5.64,0,0,1-1.62,2.05,7.16,7.16,0,0,1-2.57,1.3A11.86,11.86,0,0,1,531.72,247.9Z"/><path d="M553.43,247.9a12.39,12.39,0,0,1-4.58-.8,9.67,9.67,0,0,1-3.37-2.18,9.26,9.26,0,0,1-2.07-3.17,10.13,10.13,0,0,1-.7-3.76,11.71,11.71,0,0,1,.68-4,9.46,9.46,0,0,1,2.05-3.32,10,10,0,0,1,3.36-2.25,13.15,13.15,0,0,1,9.25,0,9.84,9.84,0,0,1,3.37,2.24,9.16,9.16,0,0,1,2.05,3.24,10.89,10.89,0,0,1,.69,3.85,11.17,11.17,0,0,1-.06,1.14c0,.38-.08.72-.13,1H550.23a2.76,2.76,0,0,0,1.15,2.26,4.07,4.07,0,0,0,2.28.69,4.74,4.74,0,0,0,2.18-.53,2.63,2.63,0,0,0,1.36-1.45l6,1.71a9.38,9.38,0,0,1-3.67,3.84A11.65,11.65,0,0,1,553.43,247.9Zm3.13-12.25a3.62,3.62,0,0,0-1-2.24,3.36,3.36,0,0,0-4.4,0,3.62,3.62,0,0,0-1,2.24Z"/><path d="M576,247.9a15.38,15.38,0,0,1-5-.84,11.4,11.4,0,0,1-4.18-2.44l2.42-4.24a18.87,18.87,0,0,0,3.52,1.9,8.68,8.68,0,0,0,3.11.67c1,0,1.49-.31,1.49-.93a1.07,1.07,0,0,0-.57-.9,10.07,10.07,0,0,0-2.26-.86,30.44,30.44,0,0,1-3.48-1.17,9.71,9.71,0,0,1-2.27-1.25,3.86,3.86,0,0,1-1.25-1.49,4.58,4.58,0,0,1-.37-1.93,6.48,6.48,0,0,1,.59-2.76,6.73,6.73,0,0,1,1.66-2.2A7.37,7.37,0,0,1,572,228a9.86,9.86,0,0,1,3.23-.5,14.94,14.94,0,0,1,4.11.55,10.42,10.42,0,0,1,3.93,2.28l-2.68,4.24a19.18,19.18,0,0,0-3-1.69,6,6,0,0,0-2.31-.5,2.07,2.07,0,0,0-1.05.24.82.82,0,0,0-.41.76,1,1,0,0,0,.6.91,9.75,9.75,0,0,0,2.35.8,28.13,28.13,0,0,1,3.57,1.18,9.12,9.12,0,0,1,2.33,1.34,4.21,4.21,0,0,1,1.25,1.64,5.5,5.5,0,0,1,.37,2.1,6.21,6.21,0,0,1-.56,2.72,5.64,5.64,0,0,1-1.62,2.05,7.24,7.24,0,0,1-2.57,1.3A11.88,11.88,0,0,1,576,247.9Z"/><path d="M595.41,237.73a10.69,10.69,0,0,1,.71-3.85,9.36,9.36,0,0,1,2.07-3.24,9.84,9.84,0,0,1,3.37-2.24,11.9,11.9,0,0,1,4.62-.84,11.21,11.21,0,0,1,6,1.49,9.63,9.63,0,0,1,3.59,3.84L608.86,235a3.15,3.15,0,0,0-2.72-1.46,3.22,3.22,0,0,0-2.46,1.1,5.34,5.34,0,0,0,0,6.22,3.18,3.18,0,0,0,2.46,1.1,3.14,3.14,0,0,0,2.72-1.45l6.89,2.08a9.51,9.51,0,0,1-3.59,3.84,11.21,11.21,0,0,1-6,1.49,11.9,11.9,0,0,1-4.62-.84,10,10,0,0,1-3.37-2.23,9.36,9.36,0,0,1-2.07-3.24A10.74,10.74,0,0,1,595.41,237.73Z"/><path d="M628.94,247.9a11.86,11.86,0,0,1-4.64-.84,10,10,0,0,1-3.35-2.23,9.16,9.16,0,0,1-2.05-3.24,11.11,11.11,0,0,1,0-7.71,9.16,9.16,0,0,1,2.05-3.24,9.85,9.85,0,0,1,3.35-2.24,13.18,13.18,0,0,1,9.26,0,9.94,9.94,0,0,1,3.37,2.24,9.31,9.31,0,0,1,2.05,3.24,11.27,11.27,0,0,1,0,7.71,9.31,9.31,0,0,1-2.05,3.24,10.07,10.07,0,0,1-3.37,2.23A11.9,11.9,0,0,1,628.94,247.9Zm-3.47-10.17a4.58,4.58,0,0,0,1,3.09,3.34,3.34,0,0,0,5,0,5.41,5.41,0,0,0,0-6.18,3.34,3.34,0,0,0-5,0A4.59,4.59,0,0,0,625.47,237.73Z"/><path d="M643.72,247.53v-6.86h5.74v6.86Z"/><rect id="underline" x="49.05" y="232.12" width="296.66" height="13.47"/><g id="Optic"><path d="M529.8,108.63a71.15,71.15,0,0,1,4.74-25.95,65,65,0,0,1,13.35-21.33A62.36,62.36,0,0,1,568.47,47a65.15,65.15,0,0,1,26.45-5.24q18.45,0,32.18,8.36A53.64,53.64,0,0,1,647.8,72.7l-16.46,5.24A39.58,39.58,0,0,0,616,62.35a45.29,45.29,0,0,0-40.42-1.62,47.41,47.41,0,0,0-15,10.85,49.94,49.94,0,0,0-10,16.34,60.19,60.19,0,0,0,.13,41.42A52.71,52.71,0,0,0,561,146.18a48.52,48.52,0,0,0,15.09,11.22,41.89,41.89,0,0,0,18.34,4.12,44.61,44.61,0,0,0,12.35-1.75,47.68,47.68,0,0,0,11.35-4.86,41.07,41.07,0,0,0,9-7.11,23.18,23.18,0,0,0,5.24-8.49l16.71,5a42.44,42.44,0,0,1-8,12.85,55.19,55.19,0,0,1-12.35,10.23A60.61,60.61,0,0,1,613,174.12a66.82,66.82,0,0,1-17.84,2.37,63.18,63.18,0,0,1-46.9-20.09,68.1,68.1,0,0,1-13.59-21.58A70,70,0,0,1,529.8,108.63Z"/><path d="M484.4,174V44h17V174Z"/><path d="M463.19,167.76c-1,.49-2.45,1.16-4.36,2s-4.12,1.67-6.61,2.5a77.49,77.49,0,0,1-8.48,2.24,48.81,48.81,0,0,1-10,1,36.18,36.18,0,0,1-10.48-1.5,24.36,24.36,0,0,1-8.73-4.61,22.71,22.71,0,0,1-6-7.86,25.33,25.33,0,0,1-2.25-11v-93h-18V44h18V.1h17V44h29.94V57.49H423.28V145.8q.5,7.24,5.11,10.6A17.5,17.5,0,0,0,439,159.77a31.69,31.69,0,0,0,12.72-2.37,54.43,54.43,0,0,0,7-3.37Z"/><path d="M369.27,83.93a69.55,69.55,0,0,0-12.85-21.58,63.49,63.49,0,0,0-19.46-15,54.5,54.5,0,0,0-24.7-5.61,53,53,0,0,0-27.69,7.61,63,63,0,0,0-20.71,19.83V44H248.64V209.92h17V147.05a66.4,66.4,0,0,0,20.33,21.08q12.6,8.35,29.06,8.36a53,53,0,0,0,23.83-5.37,58.2,58.2,0,0,0,18.71-14.59,66.11,66.11,0,0,0,12.1-21.46,78.44,78.44,0,0,0,4.24-25.94A70.93,70.93,0,0,0,369.27,83.93Zm-15.85,44.53a53.24,53.24,0,0,1-9.35,16.72A47.55,47.55,0,0,1,329.35,157a40.69,40.69,0,0,1-19.09,4.49,39.76,39.76,0,0,1-14-2.5,49.83,49.83,0,0,1-12.6-6.86,53.15,53.15,0,0,1-10.47-10.35,59.4,59.4,0,0,1-7.61-13V88.92A27.52,27.52,0,0,1,271,76.57a47.14,47.14,0,0,1,10.48-10.23,55.54,55.54,0,0,1,13.22-7,39.22,39.22,0,0,1,13.6-2.62A43.54,43.54,0,0,1,327.35,61,48.67,48.67,0,0,1,342.7,72.45a55.17,55.17,0,0,1,10.22,16.72,53.76,53.76,0,0,1,3.75,20A58.63,58.63,0,0,1,353.42,128.46Z"/><g id="O_piece" data-name="O piece"><path d="M154.59,176.49a61.53,61.53,0,0,1-25.94-5.37,63.74,63.74,0,0,1-20.34-14.59A65.87,65.87,0,0,1,95,135.07a71.85,71.85,0,0,1,.12-51.64A67.82,67.82,0,0,1,108.56,62a65.6,65.6,0,0,1,20.33-14.72,59.85,59.85,0,0,1,25.7-5.49,60.68,60.68,0,0,1,25.82,5.49A65.12,65.12,0,0,1,200.87,62a67.82,67.82,0,0,1,13.47,21.45,69.6,69.6,0,0,1,4.87,25.95,70.6,70.6,0,0,1-4.74,25.69,66.07,66.07,0,0,1-13.35,21.46,63.37,63.37,0,0,1-20.46,14.59A62.42,62.42,0,0,1,154.59,176.49Zm-47.15-66.86A54.33,54.33,0,0,0,111.18,130a55.11,55.11,0,0,0,10.11,16.47,45.84,45.84,0,0,0,15,11.1,43.08,43.08,0,0,0,18.34,4,41.89,41.89,0,0,0,18.34-4.12A48.64,48.64,0,0,0,188,146.18a53.67,53.67,0,0,0,10.23-16.59,57.48,57.48,0,0,0,0-40.79A53.27,53.27,0,0,0,188,72.08a48.83,48.83,0,0,0-15.09-11.23,42,42,0,0,0-18.34-4.11,41.18,41.18,0,0,0-18.21,4.11,48.3,48.3,0,0,0-15,11.35A54.83,54.83,0,0,0,111.18,89,56.35,56.35,0,0,0,107.44,109.63Z"/><path d="M69,80.59,0,20.17,11.21,7.43l69,60.43Z"/><path d="M88.09,54.67,60.44,6.29,72.26,0,99.91,48.38Z"/><path d="M109,36.86,98.6,3.23,108.89,0l10.42,33.63Z"/><path d="M129.81,28.09,125.2,1.75,135.84,0l4.62,26.34Z"/></g></g></g></g></svg>